<svg width="17" height="17" viewBox="0 0 17 17" fill="none" xmlns="http://www.w3.org/2000/svg">
<path d="M11.2 8.4753L16.1946 3.48023C16.9081 2.76665 16.9081 1.69629 16.1946 0.98271C15.4811 0.26913 14.4108 0.26913 13.6973 0.98271L8.7027 5.97777L3.70811 0.98271C2.99459 0.26913 1.92434 0.26913 1.21082 0.98271C0.497312 1.69629 0.497312 2.76665 1.21082 3.48023L6.20542 8.4753L1.21082 13.4704C0.497312 14.184 0.497312 15.2543 1.21082 15.9679C1.56758 16.3247 2.10271 16.5031 2.45946 16.5031C2.81622 16.5031 3.35135 16.3247 3.70811 15.9679L8.7027 10.9728L13.6973 15.9679C14.054 16.3247 14.5892 16.5031 14.9459 16.5031C15.3027 16.5031 15.8378 16.3247 16.1946 15.9679C16.9081 15.2543 16.9081 14.184 16.1946 13.4704L11.2 8.4753Z" fill="#16FFBD"/>
</svg>
