<svg width="14" height="13" viewBox="0 0 14 13" fill="none" xmlns="http://www.w3.org/2000/svg">
<path d="M9.07027 6.47531L12.9946 2.55062C13.5297 2.01544 13.5297 1.12345 12.9946 0.588264C12.4594 0.0530779 11.5675 0.0530779 11.0324 0.588264L7.10809 4.51297L3.18378 0.588264C2.64864 0.0530779 1.75674 0.0530779 1.2216 0.588264C0.686468 1.12345 0.686468 2.01544 1.2216 2.55062L5.14592 6.47531L1.2216 10.4C0.686468 10.9352 0.686468 11.8272 1.2216 12.3624C1.57836 12.7192 1.93512 12.7191 2.11349 12.7191C2.29187 12.7191 2.82701 12.5408 3.00539 12.3624L6.9297 8.43766L10.854 12.3624C11.2108 12.7192 11.5676 12.7191 11.7459 12.7191C11.9243 12.7191 12.4595 12.5408 12.6378 12.3624C13.173 11.8272 13.173 10.9352 12.6378 10.4L9.07027 6.47531Z" fill="#16FFBD"/>
</svg>
