<svg width="14" height="14" viewBox="0 0 14 14" fill="none" xmlns="http://www.w3.org/2000/svg">
<path d="M9.07027 6.88272L12.9946 2.95804C13.5297 2.42286 13.5297 1.53087 12.9946 0.995688C12.4594 0.460503 11.5675 0.460503 11.0324 0.995688L7.10809 4.92038L3.18378 0.995688C2.64864 0.460503 1.75674 0.460503 1.2216 0.995688C0.686468 1.53087 0.686468 2.42286 1.2216 2.95804L5.14592 6.88272L1.2216 10.8074C0.686468 11.3426 0.686468 12.2346 1.2216 12.7698C1.57836 13.1265 1.93512 13.1265 2.11349 13.1265C2.29187 13.1265 2.82701 12.9482 3.00539 12.7698L6.9297 8.84506L10.854 12.7698C11.2108 13.1265 11.5676 13.1265 11.7459 13.1265C11.9243 13.1265 12.4595 12.9482 12.6378 12.7698C13.173 12.2346 13.173 11.3426 12.6378 10.8074L9.07027 6.88272Z" fill="#FF8DAC"/>
</svg>
