<svg width="17" height="17" viewBox="0 0 17 17" fill="none" xmlns="http://www.w3.org/2000/svg">
<path d="M11.2 8.29013L16.1946 3.29506C16.9081 2.58148 16.9081 1.51112 16.1946 0.797545C15.4811 0.0839647 14.4108 0.0839647 13.6973 0.797545L8.7027 5.7926L3.70811 0.797545C2.99459 0.0839647 1.92434 0.0839647 1.21082 0.797545C0.497312 1.51112 0.497312 2.58148 1.21082 3.29506L6.20542 8.29013L1.21082 13.2852C0.497312 13.9988 0.497312 15.0691 1.21082 15.7827C1.56758 16.1395 2.10271 16.3179 2.45946 16.3179C2.81622 16.3179 3.35135 16.1395 3.70811 15.7827L8.7027 10.7877L13.6973 15.7827C14.054 16.1395 14.5892 16.3179 14.9459 16.3179C15.3027 16.3179 15.8378 16.1395 16.1946 15.7827C16.9081 15.0691 16.9081 13.9988 16.1946 13.2852L11.2 8.29013Z" fill="#080D14"/>
</svg>
