<svg width="14" height="13" viewBox="0 0 14 13" fill="none" xmlns="http://www.w3.org/2000/svg">
<path d="M9.07027 6.29013L12.9946 2.36545C13.5297 1.83027 13.5297 0.938282 12.9946 0.403097C12.4594 -0.132087 11.5675 -0.132087 11.0324 0.403097L7.10809 4.32779L3.18378 0.403097C2.64864 -0.132087 1.75674 -0.132087 1.2216 0.403097C0.686468 0.938282 0.686468 1.83027 1.2216 2.36545L5.14592 6.29013L1.2216 10.2148C0.686468 10.75 0.686468 11.642 1.2216 12.1772C1.57836 12.534 1.93512 12.534 2.11349 12.534C2.29187 12.534 2.82701 12.3556 3.00539 12.1772L6.9297 8.25247L10.854 12.1772C11.2108 12.534 11.5676 12.534 11.7459 12.534C11.9243 12.534 12.4595 12.3556 12.6378 12.1772C13.173 11.642 13.173 10.75 12.6378 10.2148L9.07027 6.29013Z" fill="#080D14"/>
</svg>
