<svg width="17" height="17" viewBox="0 0 17 17" fill="none" xmlns="http://www.w3.org/2000/svg">
<path d="M11.2 8.88271L16.1946 3.88764C16.9081 3.17406 16.9081 2.1037 16.1946 1.39012C15.4811 0.67654 14.4108 0.67654 13.6973 1.39012L8.7027 6.38518L3.70811 1.39012C2.99459 0.67654 1.92434 0.67654 1.21082 1.39012C0.497312 2.1037 0.497312 3.17406 1.21082 3.88764L6.20542 8.88271L1.21082 13.8778C0.497312 14.5914 0.497312 15.6617 1.21082 16.3753C1.56758 16.7321 2.10271 16.9105 2.45946 16.9105C2.81622 16.9105 3.35135 16.7321 3.70811 16.3753L8.7027 11.3802L13.6973 16.3753C14.054 16.7321 14.5892 16.9105 14.9459 16.9105C15.3027 16.9105 15.8378 16.7321 16.1946 16.3753C16.9081 15.6617 16.9081 14.5914 16.1946 13.8778L11.2 8.88271Z" fill="#FF8DAC"/>
</svg>
