<svg width="91" height="92" viewBox="0 0 91 92" fill="none" xmlns="http://www.w3.org/2000/svg">
<path d="M54.1189 35.5241V28.5667C51.6216 28.5667 52.3351 28.3883 49.8378 28.3883C47.3405 28.3883 45.9135 28.7451 44.1297 29.637C42.5243 30.529 41.8108 31.421 41.0973 32.6698C40.5622 33.9185 40.2054 35.5241 40.2054 38.0216V38.9136H36.6378L36.4594 45.871H40.027V63.5321H47.1622V45.871H53.5838L54.4757 38.9136H47.3405C47.3405 38.9136 46.8054 36.7728 47.8757 35.7025C48.4108 35.3457 54.1189 35.5241 54.1189 35.5241Z" fill="#FF8DAC"/>
<path d="M45.3784 91.1834C20.4054 91.1834 0.248642 70.8463 0.248642 46.0494C0.248642 21.2525 20.4054 0.915436 45.3784 0.915436C70.173 0.915436 90.5081 21.0741 90.5081 46.0494C90.5081 70.8463 70.173 91.1834 45.3784 91.1834ZM45.3784 6.62409C23.6162 6.62409 5.95675 24.2852 5.95675 46.0494C5.95675 67.8136 23.6162 85.4747 45.3784 85.4747C67.1405 85.4747 84.8 67.8136 84.8 46.0494C84.8 24.2852 67.1405 6.62409 45.3784 6.62409Z" fill="#FF8DAC"/>
</svg>
