<svg width="91" height="91" viewBox="0 0 91 91" fill="none" xmlns="http://www.w3.org/2000/svg">
<path d="M54.1189 35.1907V28.2333C51.6216 28.2333 52.3351 28.0549 49.8378 28.0549C47.3405 28.0549 45.9135 28.4117 44.1297 29.3037C42.5243 30.1957 41.8108 31.0877 41.0973 32.3364C40.5622 33.5852 40.2054 35.1907 40.2054 37.6883V38.5802H36.6378L36.4594 45.5377H40.027V63.1988H47.1622V45.5377H53.5838L54.4757 38.5802H47.3405C47.3405 38.5802 46.8054 36.4395 47.8757 35.3691C48.4108 35.0123 54.1189 35.1907 54.1189 35.1907Z" fill="#080D14"/>
<path d="M45.3784 90.85C20.4054 90.85 0.248642 70.513 0.248642 45.7161C0.248642 20.9191 20.4054 0.5821 45.3784 0.5821C70.173 0.5821 90.5081 20.7407 90.5081 45.7161C90.5081 70.6914 70.173 90.85 45.3784 90.85ZM45.3784 6.29074C23.6162 6.29074 5.95675 23.9519 5.95675 45.7161C5.95675 67.4802 23.6162 85.1414 45.3784 85.1414C67.1405 85.1414 84.8 67.4802 84.8 45.7161C84.8 23.9519 67.1405 6.29074 45.3784 6.29074Z" fill="#080D14"/>
</svg>
