<svg width="91" height="91" viewBox="0 0 91 91" fill="none" xmlns="http://www.w3.org/2000/svg">
<path d="M54.1189 34.8574V27.9C51.6216 27.9 52.3351 27.7216 49.8378 27.7216C47.3405 27.7216 45.9135 28.0784 44.1297 28.9704C42.5243 29.8623 41.8108 30.7543 41.0973 32.0031C40.5622 33.2518 40.2054 34.8574 40.2054 37.3549V38.2469H36.6378L36.4594 45.2043H40.027V62.8654H47.1622V45.2043H53.5838L54.4757 38.2469H47.3405C47.3405 38.2469 46.8054 36.1062 47.8757 35.0358C48.4108 34.679 54.1189 34.8574 54.1189 34.8574Z" fill="#16FFBD"/>
<path d="M45.3784 90.5167C20.4054 90.5167 0.248642 70.1796 0.248642 45.3827C0.248642 20.5858 20.4054 0.248764 45.3784 0.248764C70.173 0.248764 90.5081 20.4074 90.5081 45.3827C90.5081 70.358 70.173 90.5167 45.3784 90.5167ZM45.3784 5.95741C23.6162 5.95741 5.95675 23.6185 5.95675 45.3827C5.95675 67.1469 23.6162 84.808 45.3784 84.808C67.1405 84.808 84.8 67.1469 84.8 45.3827C84.8 23.6185 67.1405 5.95741 45.3784 5.95741Z" fill="#16FFBD"/>
</svg>
