<svg width="91" height="91" viewBox="0 0 91 91" fill="none" xmlns="http://www.w3.org/2000/svg">
<path d="M45.8378 90.85C21.0432 90.85 0.708099 70.6914 0.708099 45.7161C0.708099 20.7407 21.0432 0.5821 45.8378 0.5821C70.6324 0.5821 90.9675 20.7407 90.9675 45.7161C90.9675 70.6914 70.6324 90.85 45.8378 90.85ZM45.8378 6.29074C24.0757 6.29074 6.4162 23.9519 6.4162 45.7161C6.4162 67.4802 24.0757 85.1414 45.8378 85.1414C67.6 85.1414 85.2595 67.4802 85.2595 45.7161C85.2595 23.9519 67.6 6.29074 45.8378 6.29074Z" fill="#080D14"/>
<path d="M45.8378 25.7358C52.2594 25.7358 53.1513 25.7358 55.6486 25.9142C57.9676 26.0926 59.2162 26.4494 60.1081 26.8062C61.1784 27.163 62.0703 27.6982 62.9622 28.5901C63.854 29.4821 64.3892 30.1957 64.7459 31.4444C65.1027 32.3364 65.4595 33.5852 65.6378 35.9043C65.8162 38.4019 65.8162 39.2938 65.8162 45.7161C65.8162 52.1383 65.8162 53.0303 65.6378 55.5278C65.4595 57.8469 65.1027 59.0957 64.7459 59.9877C64.3892 61.058 63.854 61.95 62.9622 62.842C62.0703 63.734 61.3567 64.2691 60.1081 64.6259C59.2162 64.9827 57.9676 65.3395 55.6486 65.5179C53.1513 65.6963 52.2594 65.6963 45.8378 65.6963C39.4162 65.6963 38.5243 65.6963 36.027 65.5179C33.7081 65.3395 32.4595 64.9827 31.5676 64.6259C30.4973 64.2691 29.6054 63.734 28.7135 62.842C27.8216 61.95 27.2865 61.2364 26.9297 59.9877C26.573 59.0957 26.2162 57.8469 26.0378 55.5278C25.8594 53.0303 25.8594 52.1383 25.8594 45.7161C25.8594 39.2938 25.8594 38.4019 26.0378 35.9043C26.2162 33.5852 26.573 32.3364 26.9297 31.4444C27.2865 30.3741 27.8216 29.4821 28.7135 28.5901C29.6054 27.6982 30.3189 27.163 31.5676 26.8062C32.4595 26.4494 33.7081 26.0926 36.027 25.9142C38.5243 25.9142 39.4162 25.7358 45.8378 25.7358ZM45.8378 21.4543C39.2378 21.4543 38.3459 21.4543 35.8486 21.6327C33.3513 21.8111 31.5676 22.1679 29.9622 22.7031C28.3568 23.2383 26.9298 24.1302 25.6811 25.5574C24.2541 26.9846 23.5406 28.2333 22.827 29.8389C22.2919 31.4444 21.7568 33.2284 21.7568 35.7259C21.5784 38.4019 21.5784 39.1154 21.5784 45.7161C21.5784 52.3167 21.5784 53.2086 21.7568 55.7062C21.9351 58.2037 22.2919 59.9877 22.827 61.5932C23.3622 63.1988 24.2541 64.6259 25.6811 65.8747C27.1081 67.3019 28.3568 68.0154 29.9622 68.729C31.5676 69.2642 33.3513 69.7994 35.8486 69.7994C38.5243 69.9778 39.2378 69.9778 45.8378 69.9778C52.4378 69.9778 53.3297 69.9778 55.827 69.7994C58.3243 69.621 60.1081 69.2642 61.7135 68.729C63.3189 68.1938 64.7459 67.3019 65.9946 65.8747C67.2432 64.4475 68.1351 63.1988 68.8486 61.5932C69.3838 59.9877 69.9189 58.2037 69.9189 55.7062C70.0973 53.0302 70.0973 52.3167 70.0973 45.7161C70.0973 39.1154 70.0973 38.2235 69.9189 35.7259C69.7405 33.2284 69.3838 31.4444 68.8486 29.8389C68.3135 28.2333 67.4216 26.8062 65.9946 25.5574C64.5675 24.3086 63.3189 23.4167 61.7135 22.7031C60.1081 22.1679 58.3243 21.6327 55.827 21.6327C53.3297 21.4543 52.4378 21.4543 45.8378 21.4543Z" fill="#080D14"/>
<path d="M45.8378 33.2284C38.8811 33.2284 33.3513 38.7586 33.3513 45.716C33.3513 52.6735 38.8811 58.2037 45.8378 58.2037C52.7946 58.2037 58.3243 52.6735 58.3243 45.716C58.3243 38.7586 52.7946 33.2284 45.8378 33.2284ZM45.8378 53.7438C41.3784 53.7438 37.8108 50.1759 37.8108 45.716C37.8108 41.2562 41.3784 37.6883 45.8378 37.6883C50.2973 37.6883 53.8649 41.2562 53.8649 45.716C53.8649 50.1759 50.2973 53.7438 45.8378 53.7438Z" fill="#080D14"/>
<path d="M58.8594 35.5475C60.4357 35.5475 61.7135 34.2696 61.7135 32.6932C61.7135 31.1168 60.4357 29.8389 58.8594 29.8389C57.2832 29.8389 56.0054 31.1168 56.0054 32.6932C56.0054 34.2696 57.2832 35.5475 58.8594 35.5475Z" fill="#080D14"/>
</svg>
