<svg width="91" height="91" viewBox="0 0 91 91" fill="none" xmlns="http://www.w3.org/2000/svg">
<path d="M45.8378 90.5167C21.0432 90.5167 0.708099 70.358 0.708099 45.3827C0.708099 20.4074 21.0432 0.248764 45.8378 0.248764C70.6324 0.248764 90.9675 20.4074 90.9675 45.3827C90.9675 70.358 70.6324 90.5167 45.8378 90.5167ZM45.8378 5.95741C24.0757 5.95741 6.4162 23.6185 6.4162 45.3827C6.4162 67.1469 24.0757 84.808 45.8378 84.808C67.6 84.808 85.2595 67.1469 85.2595 45.3827C85.2595 23.6185 67.6 5.95741 45.8378 5.95741Z" fill="#16FFBD"/>
<path d="M45.8378 25.4025C52.2594 25.4025 53.1513 25.4025 55.6486 25.5809C57.9676 25.7593 59.2162 26.116 60.1081 26.4728C61.1784 26.8296 62.0703 27.3648 62.9622 28.2568C63.854 29.1488 64.3892 29.8623 64.7459 31.1111C65.1027 32.0031 65.4595 33.2519 65.6378 35.571C65.8162 38.0685 65.8162 38.9605 65.8162 45.3827C65.8162 51.8049 65.8162 52.6969 65.6378 55.1944C65.4595 57.5136 65.1027 58.7623 64.7459 59.6543C64.3892 60.7247 63.854 61.6167 62.9622 62.5086C62.0703 63.4006 61.3567 63.9358 60.1081 64.2926C59.2162 64.6494 57.9676 65.0062 55.6486 65.1846C53.1513 65.363 52.2594 65.363 45.8378 65.363C39.4162 65.363 38.5243 65.363 36.027 65.1846C33.7081 65.0062 32.4595 64.6494 31.5676 64.2926C30.4973 63.9358 29.6054 63.4006 28.7135 62.5086C27.8216 61.6167 27.2865 60.9031 26.9297 59.6543C26.573 58.7623 26.2162 57.5136 26.0378 55.1944C25.8594 52.6969 25.8594 51.8049 25.8594 45.3827C25.8594 38.9605 25.8594 38.0685 26.0378 35.571C26.2162 33.2519 26.573 32.0031 26.9297 31.1111C27.2865 30.0407 27.8216 29.1488 28.7135 28.2568C29.6054 27.3648 30.3189 26.8296 31.5676 26.4728C32.4595 26.116 33.7081 25.7593 36.027 25.5809C38.5243 25.5809 39.4162 25.4025 45.8378 25.4025ZM45.8378 21.121C39.2378 21.121 38.3459 21.121 35.8486 21.2994C33.3513 21.4778 31.5676 21.8346 29.9622 22.3698C28.3568 22.9049 26.9298 23.7969 25.6811 25.2241C24.2541 26.6512 23.5406 27.9 22.827 29.5056C22.2919 31.1111 21.7568 32.8951 21.7568 35.3926C21.5784 38.0685 21.5784 38.7821 21.5784 45.3827C21.5784 51.9833 21.5784 52.8753 21.7568 55.3728C21.9351 57.8704 22.2919 59.6543 22.827 61.2599C23.3622 62.8654 24.2541 64.2926 25.6811 65.5414C27.1081 66.9685 28.3568 67.6821 29.9622 68.3957C31.5676 68.9309 33.3513 69.466 35.8486 69.466C38.5243 69.6444 39.2378 69.6444 45.8378 69.6444C52.4378 69.6444 53.3297 69.6444 55.827 69.466C58.3243 69.2877 60.1081 68.9309 61.7135 68.3957C63.3189 67.8605 64.7459 66.9685 65.9946 65.5414C67.4216 64.1142 68.1351 62.8654 68.8486 61.2599C69.3838 59.6543 69.9189 57.8704 69.9189 55.3728C70.0973 52.6969 70.0973 51.9833 70.0973 45.3827C70.0973 38.7821 70.0973 37.8901 69.9189 35.3926C69.7405 32.8951 69.3838 31.1111 68.8486 29.5056C68.3135 27.9 67.4216 26.4728 65.9946 25.2241C64.5675 23.7969 63.3189 23.0833 61.7135 22.3698C60.1081 21.8346 58.3243 21.2994 55.827 21.2994C53.3297 21.121 52.4378 21.121 45.8378 21.121Z" fill="#16FFBD"/>
<path d="M45.8378 32.8951C38.8811 32.8951 33.3513 38.4253 33.3513 45.3827C33.3513 52.3401 38.8811 57.8704 45.8378 57.8704C52.7946 57.8704 58.3243 52.3401 58.3243 45.3827C58.3243 38.4253 52.7946 32.8951 45.8378 32.8951ZM45.8378 53.4105C41.3784 53.4105 37.8108 49.8426 37.8108 45.3827C37.8108 40.9228 41.3784 37.3549 45.8378 37.3549C50.2973 37.3549 53.8649 40.9228 53.8649 45.3827C53.8649 49.8426 50.2973 53.4105 45.8378 53.4105Z" fill="#16FFBD"/>
<path d="M58.8594 35.2142C60.4357 35.2142 61.7135 33.9363 61.7135 32.3599C61.7135 30.7835 60.4357 29.5056 58.8594 29.5056C57.2832 29.5056 56.0054 30.7835 56.0054 32.3599C56.0054 33.9363 57.2832 35.2142 58.8594 35.2142Z" fill="#16FFBD"/>
</svg>
