<svg width="91" height="92" viewBox="0 0 91 92" fill="none" xmlns="http://www.w3.org/2000/svg">
<path d="M45.8378 91.1834C21.0432 91.1834 0.708099 71.0247 0.708099 46.0494C0.708099 21.0741 21.0432 0.915436 45.8378 0.915436C70.6324 0.915436 90.9675 21.0741 90.9675 46.0494C90.9675 71.0247 70.6324 91.1834 45.8378 91.1834ZM45.8378 6.62409C24.0757 6.62409 6.4162 24.2852 6.4162 46.0494C6.4162 67.8136 24.0757 85.4747 45.8378 85.4747C67.6 85.4747 85.2595 67.8136 85.2595 46.0494C85.2595 24.2852 67.6 6.62409 45.8378 6.62409Z" fill="#FF8DAC"/>
<path d="M45.8378 26.0691C52.2594 26.0691 53.1513 26.0691 55.6486 26.2475C57.9676 26.4259 59.2162 26.7827 60.1081 27.1395C61.1784 27.4963 62.0703 28.0315 62.9622 28.9235C63.854 29.8154 64.3892 30.529 64.7459 31.7778C65.1027 32.6698 65.4595 33.9185 65.6378 36.2377C65.8162 38.7352 65.8162 39.6272 65.8162 46.0494C65.8162 52.4716 65.8162 53.3636 65.6378 55.8611C65.4595 58.1802 65.1027 59.429 64.7459 60.321C64.3892 61.3914 63.854 62.2833 62.9622 63.1753C62.0703 64.0673 61.3567 64.6025 60.1081 64.9593C59.2162 65.3161 57.9676 65.6729 55.6486 65.8512C53.1513 66.0296 52.2594 66.0296 45.8378 66.0296C39.4162 66.0296 38.5243 66.0296 36.027 65.8512C33.7081 65.6729 32.4595 65.3161 31.5676 64.9593C30.4973 64.6025 29.6054 64.0673 28.7135 63.1753C27.8216 62.2833 27.2865 61.5698 26.9297 60.321C26.573 59.429 26.2162 58.1802 26.0378 55.8611C25.8594 53.3636 25.8594 52.4716 25.8594 46.0494C25.8594 39.6272 25.8594 38.7352 26.0378 36.2377C26.2162 33.9185 26.573 32.6698 26.9297 31.7778C27.2865 30.7074 27.8216 29.8154 28.7135 28.9235C29.6054 28.0315 30.3189 27.4963 31.5676 27.1395C32.4595 26.7827 33.7081 26.4259 36.027 26.2475C38.5243 26.2475 39.4162 26.0691 45.8378 26.0691ZM45.8378 21.7877C39.2378 21.7877 38.3459 21.7877 35.8486 21.9661C33.3513 22.1444 31.5676 22.5012 29.9622 23.0364C28.3568 23.5716 26.9298 24.4636 25.6811 25.8907C24.2541 27.3179 23.5406 28.5667 22.827 30.1722C22.2919 31.7778 21.7568 33.5617 21.7568 36.0593C21.5784 38.7352 21.5784 39.4488 21.5784 46.0494C21.5784 52.65 21.5784 53.542 21.7568 56.0395C21.9351 58.5371 22.2919 60.321 22.827 61.9265C23.3622 63.5321 24.2541 64.9593 25.6811 66.208C27.1081 67.6352 28.3568 68.3488 29.9622 69.0623C31.5676 69.5975 33.3513 70.1327 35.8486 70.1327C38.5243 70.3111 39.2378 70.3111 45.8378 70.3111C52.4378 70.3111 53.3297 70.3111 55.827 70.1327C58.3243 69.9543 60.1081 69.5975 61.7135 69.0623C63.3189 68.5272 64.7459 67.6352 65.9946 66.208C67.4216 64.7809 68.1351 63.5321 68.8486 61.9265C69.3838 60.321 69.9189 58.5371 69.9189 56.0395C70.0973 53.3636 70.0973 52.65 70.0973 46.0494C70.0973 39.4488 70.0973 38.5568 69.9189 36.0593C69.7405 33.5617 69.3838 31.7778 68.8486 30.1722C68.3135 28.5667 67.4216 27.1395 65.9946 25.8907C64.5675 24.642 63.3189 23.75 61.7135 23.0364C60.1081 22.5012 58.3243 21.9661 55.827 21.9661C53.3297 21.7877 52.4378 21.7877 45.8378 21.7877Z" fill="#FF8DAC"/>
<path d="M45.8378 33.5617C38.8811 33.5617 33.3513 39.092 33.3513 46.0494C33.3513 53.0068 38.8811 58.537 45.8378 58.537C52.7946 58.537 58.3243 53.0068 58.3243 46.0494C58.3243 39.092 52.7946 33.5617 45.8378 33.5617ZM45.8378 54.0772C41.3784 54.0772 37.8108 50.5093 37.8108 46.0494C37.8108 41.5895 41.3784 38.0216 45.8378 38.0216C50.2973 38.0216 53.8649 41.5895 53.8649 46.0494C53.8649 50.5093 50.2973 54.0772 45.8378 54.0772Z" fill="#FF8DAC"/>
<path d="M58.8594 35.8809C60.4357 35.8809 61.7135 34.6029 61.7135 33.0265C61.7135 31.4501 60.4357 30.1722 58.8594 30.1722C57.2832 30.1722 56.0054 31.4501 56.0054 33.0265C56.0054 34.6029 57.2832 35.8809 58.8594 35.8809Z" fill="#FF8DAC"/>
</svg>
