<svg width="91" height="91" viewBox="0 0 91 91" fill="none" xmlns="http://www.w3.org/2000/svg">
<path d="M25.0108 42.6833C25.0108 46.9648 28.7568 49.2839 32.8595 49.9975C32.146 50.1759 31.7892 50.8895 28.9351 50.7111C30.0054 54.279 33.2162 55.5278 37.1405 55.5278C34.1081 57.8469 30.1838 58.7389 25.9027 58.7389C25.1892 58.7389 24.4757 58.7389 23.7622 58.5605C27.6865 61.058 32.3243 63.5555 37.4973 63.5555C53.9081 63.5555 61.9351 51.4247 61.9351 39.4722C61.9351 39.1154 61.9351 38.7586 61.9351 38.4019C63.7189 37.1531 66.3946 35.3691 67.4649 33.5852C65.8595 34.2988 64.0757 33.5852 62.1135 33.7636C63.8973 32.6932 66.2162 31.266 66.3946 28.0549C64.6108 29.1253 62.2919 30.3741 60.3297 30.9093C58.7243 29.1253 56.4054 27.6982 53.7297 27.6982C48.7351 27.6982 45.5243 32.3364 45.5243 37.1531C45.5243 37.8667 45.5243 38.2234 45.7027 38.937C38.2108 38.5802 30.3622 36.0827 25.9027 30.7309C25.1892 31.9796 24.6541 33.5852 24.6541 35.1907C24.6541 38.2235 26.973 41.0778 29.4703 42.6833C28.4 42.6833 28.5784 43.7537 25.0108 42.6833Z" fill="#080D14"/>
<path d="M45.7027 90.85C20.9081 90.85 0.572975 70.6914 0.572975 45.7161C0.572975 20.7407 20.9081 0.5821 45.7027 0.5821C70.4973 0.5821 90.8324 20.7407 90.8324 45.7161C90.8324 70.6914 70.4973 90.85 45.7027 90.85ZM45.7027 6.29074C23.9405 6.29074 6.28109 23.9519 6.28109 45.7161C6.28109 67.4802 23.9405 85.1414 45.7027 85.1414C67.4649 85.1414 85.1243 67.4802 85.1243 45.7161C85.1243 23.9519 67.4649 6.29074 45.7027 6.29074Z" fill="#080D14"/>
</svg>
