<svg width="91" height="91" viewBox="0 0 91 91" fill="none" xmlns="http://www.w3.org/2000/svg">
<path d="M25.0108 42.35C25.0108 46.6315 28.7568 48.9506 32.8595 49.6642C32.146 49.8426 31.7892 50.5562 28.9351 50.3778C30.0054 53.9457 33.2162 55.1944 37.1405 55.1944C34.1081 57.5136 30.1838 58.4055 25.9027 58.4055C25.1892 58.4055 24.4757 58.4055 23.7622 58.2272C27.6865 60.7247 32.3243 63.2222 37.4973 63.2222C53.9081 63.2222 61.9351 51.0914 61.9351 39.1389C61.9351 38.7821 61.9351 38.4253 61.9351 38.0685C63.7189 36.8197 66.3946 35.0358 67.4649 33.2518C65.8595 33.9654 64.0757 33.2518 62.1135 33.4302C63.8973 32.3599 66.2162 30.9327 66.3946 27.7216C64.6108 28.792 62.2919 30.0407 60.3297 30.5759C58.7243 28.792 56.4054 27.3648 53.7297 27.3648C48.7351 27.3648 45.5243 32.0031 45.5243 36.8197C45.5243 37.5333 45.5243 37.8901 45.7027 38.6037C38.2108 38.2469 30.3622 35.7494 25.9027 30.3975C25.1892 31.6463 24.6541 33.2518 24.6541 34.8574C24.6541 37.8901 26.973 40.7444 29.4703 42.35C28.4 42.35 28.5784 43.4204 25.0108 42.35Z" fill="#16FFBD"/>
<path d="M45.7027 90.5167C20.9081 90.5167 0.572975 70.358 0.572975 45.3827C0.572975 20.4074 20.9081 0.248764 45.7027 0.248764C70.4973 0.248764 90.8324 20.4074 90.8324 45.3827C90.8324 70.358 70.4973 90.5167 45.7027 90.5167ZM45.7027 5.95741C23.9405 5.95741 6.28109 23.6185 6.28109 45.3827C6.28109 67.1469 23.9405 84.808 45.7027 84.808C67.4649 84.808 85.1243 67.1469 85.1243 45.3827C85.1243 23.6185 67.4649 5.95741 45.7027 5.95741Z" fill="#16FFBD"/>
</svg>
