<svg width="91" height="92" viewBox="0 0 91 92" fill="none" xmlns="http://www.w3.org/2000/svg">
<path d="M25.0108 43.0167C25.0108 47.2982 28.7568 49.6173 32.8595 50.3309C32.146 50.5093 31.7892 51.2228 28.9351 51.0445C30.0054 54.6124 33.2162 55.8611 37.1405 55.8611C34.1081 58.1802 30.1838 59.0722 25.9027 59.0722C25.1892 59.0722 24.4757 59.0722 23.7622 58.8938C27.6865 61.3914 32.3243 63.8889 37.4973 63.8889C53.9081 63.8889 61.9351 51.758 61.9351 39.8056C61.9351 39.4488 61.9351 39.092 61.9351 38.7352C63.7189 37.4864 66.3946 35.7025 67.4649 33.9185C65.8595 34.6321 64.0757 33.9185 62.1135 34.0969C63.8973 33.0266 66.2162 31.5994 66.3946 28.3883C64.6108 29.4586 62.2919 30.7074 60.3297 31.2426C58.7243 29.4586 56.4054 28.0315 53.7297 28.0315C48.7351 28.0315 45.5243 32.6698 45.5243 37.4864C45.5243 38.2 45.5243 38.5568 45.7027 39.2704C38.2108 38.9136 30.3622 36.4161 25.9027 31.0642C25.1892 32.313 24.6541 33.9185 24.6541 35.5241C24.6541 38.5568 26.973 41.4111 29.4703 43.0167C28.4 43.0167 28.5784 44.087 25.0108 43.0167Z" fill="#FF8DAC"/>
<path d="M45.7027 91.1834C20.9081 91.1834 0.572975 71.0247 0.572975 46.0494C0.572975 21.2525 20.7297 0.915436 45.7027 0.915436C70.4973 0.915436 90.8324 21.0741 90.8324 46.0494C90.8324 70.8463 70.4973 91.1834 45.7027 91.1834ZM45.7027 6.62409C23.9405 6.62409 6.28109 24.2852 6.28109 46.0494C6.28109 67.8136 23.9405 85.4747 45.7027 85.4747C67.4649 85.4747 85.1243 67.8136 85.1243 46.0494C85.1243 24.2852 67.4649 6.62409 45.7027 6.62409Z" fill="#FF8DAC"/>
</svg>
