<svg width="92" height="91" viewBox="0 0 92 91" fill="none" xmlns="http://www.w3.org/2000/svg">
<path d="M34.4324 28.9469C34.4324 28.9469 38.7135 26.4494 40.1405 29.1253C41.3892 29.8389 44.2432 46.4296 44.9567 49.6407C45.4919 52.8518 47.0973 54.1006 47.9892 52.6735C48.8811 51.2463 52.0919 47.6784 54.2324 42.6833C56.373 37.6883 53.5189 36.9747 52.627 37.3315C51.7351 37.6883 47.2757 37.6883 48.8811 35.7259C50.4865 33.7636 54.5892 30.3741 55.6594 29.8389C57.6216 28.4117 60.2973 26.6278 62.7946 29.6605C64.4 30.9093 67.9676 35.0123 64.4 41.4346C60.8324 47.6784 47.6324 62.3068 47.6324 62.3068C47.6324 62.3068 42.6378 65.6963 40.6757 62.3068C38.7135 58.9173 32.1135 43.2185 31.7567 41.0778C31.5784 38.937 31.0432 38.4018 29.973 38.937C28.9027 39.4722 26.7621 42.6833 26.5838 41.7914C26.4054 40.8994 24.4432 39.6506 25.6919 37.6883C26.9405 35.7259 33.5405 29.4821 34.4324 28.9469Z" fill="#080D14"/>
<path d="M46.027 90.85C21.2324 90.85 0.897293 70.6914 0.897293 45.7161C0.897293 20.7407 21.0541 0.5821 46.027 0.5821C70.8216 0.5821 91.1568 20.7407 91.1568 45.7161C91.1568 70.6914 70.8216 90.85 46.027 90.85ZM46.027 6.29074C24.2649 6.29074 6.60541 23.9519 6.60541 45.7161C6.60541 67.4802 24.2649 85.1414 46.027 85.1414C67.7892 85.1414 85.4487 67.4802 85.4487 45.7161C85.4487 23.9519 67.7892 6.29074 46.027 6.29074Z" fill="#080D14"/>
</svg>
