<svg width="92" height="92" viewBox="0 0 92 92" fill="none" xmlns="http://www.w3.org/2000/svg">
<path d="M34.4324 29.2802C34.4324 29.2802 38.7135 26.7827 40.1405 29.4586C41.3892 30.1722 44.2432 46.763 44.9567 49.9741C45.4919 53.1852 47.0973 54.4339 47.9892 53.0068C48.8811 51.5796 52.0919 48.0117 54.2324 43.0167C56.373 38.0216 53.5189 37.308 52.627 37.6648C51.7351 38.0216 47.2757 38.0216 48.8811 36.0592C50.4865 34.0969 54.5892 30.7074 55.6594 30.1722C57.6216 28.7451 60.2973 26.9611 62.7946 29.9938C64.4 31.2426 67.9676 35.3457 64.4 41.7679C60.8324 48.0117 47.6324 62.6401 47.6324 62.6401C47.6324 62.6401 42.6378 66.0296 40.6757 62.6401C38.7135 59.2506 32.1135 43.5518 31.7567 41.4111C31.5784 39.2704 31.0432 38.7352 29.973 39.2704C28.9027 39.8055 26.7621 43.0167 26.5838 42.1247C26.4054 41.2327 24.4432 39.9839 25.6919 38.0216C26.9405 36.0593 33.5405 29.8154 34.4324 29.2802Z" fill="#FF8DAC"/>
<path d="M46.027 91.1834C21.2324 91.1834 0.897293 71.0247 0.897293 46.0494C0.897293 21.2525 21.0541 0.915436 46.027 0.915436C70.8216 0.915436 91.1568 21.0741 91.1568 46.0494C91.1568 70.8463 70.8216 91.1834 46.027 91.1834ZM46.027 6.62409C24.2649 6.62409 6.60541 24.2852 6.60541 46.0494C6.60541 67.8136 24.2649 85.4747 46.027 85.4747C67.7892 85.4747 85.4487 67.8136 85.4487 46.0494C85.4487 24.2852 67.7892 6.62409 46.027 6.62409Z" fill="#FF8DAC"/>
</svg>
