<svg width="92" height="91" viewBox="0 0 92 91" fill="none" xmlns="http://www.w3.org/2000/svg">
<path d="M34.4324 28.6136C34.4324 28.6136 38.7135 26.1161 40.1405 28.792C41.3892 29.5056 44.2432 46.0963 44.9567 49.3074C45.4919 52.5185 47.0973 53.7673 47.9892 52.3401C48.8811 50.913 52.0919 47.3451 54.2324 42.35C56.373 37.3549 53.5189 36.6414 52.627 36.9981C51.7351 37.3549 47.2757 37.3549 48.8811 35.3926C50.4865 33.4302 54.5892 30.0407 55.6594 29.5056C57.6216 28.0784 60.2973 26.2944 62.7946 29.3272C64.4 30.5759 67.9676 34.679 64.4 41.1012C60.8324 47.3451 47.6324 61.9735 47.6324 61.9735C47.6324 61.9735 42.6378 65.363 40.6757 61.9735C38.7135 58.584 32.1135 42.8852 31.7567 40.7444C31.5784 38.6037 31.0432 38.0685 29.973 38.6037C28.9027 39.1389 26.7621 42.35 26.5838 41.458C26.4054 40.566 24.4432 39.3173 25.6919 37.3549C26.9405 35.3926 33.5405 29.1488 34.4324 28.6136Z" fill="#16FFBD"/>
<path d="M46.027 90.5167C21.2324 90.5167 0.897293 70.358 0.897293 45.3827C0.897293 20.4074 21.2324 0.248764 46.027 0.248764C70.8216 0.248764 91.1568 20.4074 91.1568 45.3827C91.1568 70.358 70.8216 90.5167 46.027 90.5167ZM46.027 5.95741C24.2649 5.95741 6.60541 23.6185 6.60541 45.3827C6.60541 67.1469 24.2649 84.808 46.027 84.808C67.7892 84.808 85.4487 67.1469 85.4487 45.3827C85.4487 23.6185 67.7892 5.95741 46.027 5.95741Z" fill="#16FFBD"/>
</svg>
